<svg width="24" height="24" viewBox="0 0 24 24" fill="none" xmlns="http://www.w3.org/2000/svg">
<path fill-rule="evenodd" clip-rule="evenodd" d="M17.0591 1.20308C17.8612 0.401032 18.8946 0 19.9281 0C20.9614 0 21.9949 0.401032 22.797 1.20308C24.401 2.80721 24.401 5.33677 22.797 6.94088L7.18767 22.5502L6.87918 22.6118L1.44987 23.6916L0 24L0.30849 22.5502L1.38818 17.1209L1.44987 16.8124L17.0591 1.20308ZM21.4088 2.59125C20.9268 2.10925 20.4254 1.88174 19.928 1.88174C19.4307 1.88174 18.9293 2.10925 18.4473 2.59125L17.7687 3.30078L20.6992 6.23137L21.4088 5.5527C22.3689 4.59254 22.3689 3.55141 21.4088 2.59125ZM16.3805 4.68894L19.311 7.61953L7.37275 19.5578C6.72494 18.2931 5.70694 17.2751 4.44215 16.6273L16.3805 4.68894ZM5.76864 20.8227C5.29048 19.6389 4.36118 18.7095 3.17737 18.2313L2.52956 21.4705L5.76864 20.8227Z" fill="#FF0092"/>
</svg>
