<svg width="41" height="40" viewBox="0 0 41 40" fill="none" xmlns="http://www.w3.org/2000/svg">
<g clip-path="url(#clip0_146_1113)">
<path d="M3.41656 1.88473C3.41652 1.60973 3.34245 1.33981 3.20213 1.10331C3.06181 0.866808 2.86041 0.672458 2.61907 0.540634C2.37774 0.40881 2.10536 0.34437 1.83054 0.354111C1.55572 0.363851 1.28859 0.447404 1.05719 0.595982C0.825785 0.74456 0.63865 0.952682 0.515424 1.19852C0.392198 1.44436 0.337426 1.71885 0.356856 1.99316C0.376287 2.26746 0.469205 2.53147 0.625855 2.75749C0.782505 2.9835 0.997111 3.16318 1.24715 3.27765C1.24598 3.29803 1.24598 3.31845 1.24715 3.33883V39.2C1.24715 39.3186 1.29425 39.4323 1.37809 39.5161C1.46193 39.6 1.57564 39.6471 1.6942 39.6471H2.08479C2.20336 39.6471 2.31707 39.6 2.40091 39.5161C2.48475 39.4323 2.53185 39.3186 2.53185 39.2V3.33883C2.53301 3.31845 2.53301 3.29803 2.53185 3.27765C2.79707 3.15437 3.02138 2.95761 3.17818 2.71073C3.33499 2.46384 3.41771 2.1772 3.41656 1.88473Z" fill="#4E46CC"/>
<path d="M29.2776 19.4024V24.0235C29.2776 21.2541 33.8376 22.4612 33.8376 19.4024H29.2776Z" fill="#2B23A7" stroke="#2B23A7" stroke-width="0.705882" stroke-linejoin="round"/>
<path d="M40.2094 22.9153L36.8423 14.8306L40.2094 6.74823L33.8376 7.87294V19.4024C33.8376 22.4612 29.2776 21.2541 29.2776 24.0235L40.2094 22.9153Z" fill="#4E46CC"/>
<path d="M33.7954 3.24706V19.4094L4.30835 22.9718V5.02823L33.7954 3.24706Z" fill="#6C63FF"/>
<path d="M9.56399 16.3513L9.08938 9.78044L10.9924 9.64298C12.321 9.54702 13.2613 9.94832 13.3437 11.0884C13.3916 11.7526 13.0914 12.3428 12.4773 12.5857L12.4805 12.6305C13.2905 12.7254 13.8846 13.2059 13.9501 14.1125C14.0422 15.3872 13.0828 16.0972 11.6107 16.2035L9.56399 16.3513ZM10.0291 12.5459L11.0434 12.4727C12.2283 12.3871 12.6736 11.9308 12.623 11.2306C12.5653 10.4317 11.9957 10.1661 10.9275 10.2432L9.86826 10.3197L10.0291 12.5459ZM10.2573 15.7057L11.4512 15.6195C12.6181 15.5352 13.2885 15.0717 13.2211 14.1381C13.1601 13.2943 12.4583 12.948 11.2644 13.0342L10.0705 13.1204L10.2573 15.7057ZM15.4198 15.9284L14.9452 9.35747L18.6795 9.08775L18.7255 9.72509L15.7273 9.94165L15.8829 12.096L18.4054 11.9138L18.4514 12.5512L15.929 12.7334L16.1105 15.2468L19.2075 15.0231L19.2528 15.6515L15.4198 15.9284ZM22.4664 15.5457C21.5329 15.6131 20.715 15.2842 20.1157 14.7319L20.5276 14.1879C21.0307 14.6568 21.7279 14.9403 22.4281 14.8898C23.3257 14.8249 23.8313 14.3282 23.7826 13.655C23.7308 12.9368 23.2215 12.7571 22.573 12.5242L21.591 12.171C20.9708 11.9541 20.2113 11.5578 20.1413 10.5883C20.0693 9.59193 20.8702 8.81221 22.0461 8.72727C22.8271 8.67086 23.534 8.9627 24.0075 9.39771L23.6469 9.902C23.2247 9.55351 22.7128 9.33783 22.0935 9.38256C21.3215 9.43832 20.8473 9.86961 20.8914 10.48C20.94 11.1533 21.5506 11.3618 22.0689 11.5409L23.0413 11.8858C23.8283 12.1628 24.4615 12.5592 24.5328 13.5467C24.6074 14.579 23.8129 15.4485 22.4664 15.5457ZM27.1111 15.0839L26.6825 9.15036L24.6718 9.29559L24.6257 8.65825L29.3923 8.31396L29.4383 8.9513L27.4276 9.09654L27.8562 15.0301L27.1111 15.0839Z" fill="white"/>
</g>
<defs>
<clipPath id="clip0_146_1113">
<rect width="40.5624" height="40" fill="white"/>
</clipPath>
</defs>
</svg>
