<svg width="49" height="48" viewBox="0 0 49 48" fill="none" xmlns="http://www.w3.org/2000/svg">
<path d="M35.1 18L31.2193 30.6124C31.1398 30.8708 31.0648 31.1262 30.9719 31.3801C30.424 32.8784 27.9826 38.4193 21.1006 41C13.1007 44 5.09939 40 5.09998 32.0769C5.10057 24.1538 13.1 25 17.1 22C21.1 19 25.1 13 25.1 13" stroke="#333333" stroke-width="2"/>
<path d="M39.3545 24.4878C39.3545 24.4878 40.4716 19.1756 40.101 16.0002C39.596 11.6727 37.601 8.50022 35.1002 7.00023C32.5995 5.50025 27.3531 4.50021 23.1004 7.00025C18.8477 9.50028 17.0676 12.8454 17.0676 12.8454L25.2744 12.0776C25.7536 12.0327 26.1968 12.3357 26.3291 12.7985L27.8262 18.0387C27.978 18.5697 28.5315 18.8772 29.0625 18.7255L34.3444 17.2162C34.788 17.0894 35.2607 17.2826 35.4886 17.6837L39.3545 24.4878Z" stroke="#333333" stroke-width="2" stroke-linecap="round" stroke-linejoin="round"/>
<path d="M36.1 8L42.1 6" stroke="#333333" stroke-width="2" stroke-linecap="round" stroke-linejoin="round"/>
</svg>
