<svg width="48" height="40" viewBox="0 0 48 40" fill="none" xmlns="http://www.w3.org/2000/svg">
<g clip-path="url(#clip0_142_1119)">
<path d="M18.0001 32.6674C17.8668 32.6674 17.739 32.6144 17.6447 32.52C17.5504 32.4255 17.4975 32.2975 17.4975 32.164C17.4975 28.1636 8.66839 18.7869 4.89885 18.7869C4.76555 18.7869 4.6377 18.7339 4.54345 18.6395C4.44919 18.5451 4.39624 18.4171 4.39624 18.2835C4.39624 18.15 4.44919 18.022 4.54345 17.9276C4.6377 17.8332 4.76555 17.7801 4.89885 17.7801C8.66839 17.7801 17.4975 8.38332 17.4975 4.39973C17.4975 4.26622 17.5504 4.13818 17.6447 4.04377C17.739 3.94937 17.8668 3.89633 18.0001 3.89633C18.1334 3.89633 18.2612 3.94937 18.3555 4.04377C18.4498 4.13818 18.5027 4.26622 18.5027 4.39973C18.5027 8.4001 27.3319 17.7801 31.098 17.7801C31.2313 17.7801 31.3592 17.8332 31.4534 17.9276C31.5477 18.022 31.6007 18.15 31.6007 18.2835C31.6007 18.4171 31.5477 18.5451 31.4534 18.6395C31.3592 18.7339 31.2313 18.7869 31.098 18.7869C27.3319 18.7869 18.5027 28.1636 18.5027 32.164C18.5027 32.2975 18.4498 32.4255 18.3555 32.52C18.2612 32.6144 18.1334 32.6674 18.0001 32.6674Z" fill="#FFC262"/>
<path d="M18.8811 1.57397C18.8811 2.44318 18.2847 3.14792 17.9999 3.14792C17.7151 3.14792 17.1187 2.44318 17.1187 1.57397C17.1187 0.704763 17.5107 0 17.9999 0C18.4891 0 18.8811 0.704763 18.8811 1.57397Z" fill="#FFC262"/>
<path d="M34.4285 19.1662C33.564 19.1662 32.8604 18.5688 32.8604 18.2835C32.8604 17.9983 33.564 17.4009 34.4285 17.4009C35.2929 17.4009 36 17.7936 36 18.2835C36 18.7735 35.2963 19.1662 34.4285 19.1662Z" fill="#FFC262"/>
<path d="M1.56815 17.4009C2.43598 17.4009 3.13961 17.9983 3.13961 18.2835C3.13961 18.5688 2.43598 19.1662 1.56815 19.1662C0.700316 19.1662 0 18.7702 0 18.2835C0 17.7969 0.703667 17.4009 1.56815 17.4009Z" fill="#FFC262"/>
<path d="M17.1187 35.4294C17.1187 34.5602 17.7151 33.8554 17.9999 33.8554C18.2847 33.8554 18.8811 34.5602 18.8811 35.4294C18.8811 36.2986 18.4857 37 17.9999 37C17.514 37 17.1187 36.2952 17.1187 35.4294Z" fill="#FFC262"/>
</g>
<g clip-path="url(#clip1_142_1119)">
<path d="M38.0001 37.5409C37.926 37.5409 37.855 37.5108 37.8026 37.4573C37.7503 37.4037 37.7209 37.331 37.7209 37.2552C37.7209 34.9848 32.8158 29.6629 30.7216 29.6629C30.6476 29.6629 30.5765 29.6328 30.5242 29.5792C30.4718 29.5256 30.4424 29.4529 30.4424 29.3771C30.4424 29.3014 30.4718 29.2287 30.5242 29.1751C30.5765 29.1215 30.6476 29.0914 30.7216 29.0914C32.8158 29.0914 37.7209 23.7581 37.7209 21.4971C37.7209 21.4214 37.7503 21.3487 37.8026 21.2951C37.855 21.2415 37.926 21.2114 38.0001 21.2114C38.0741 21.2114 38.1452 21.2415 38.1975 21.2951C38.2499 21.3487 38.2793 21.4214 38.2793 21.4971C38.2793 23.7676 43.1844 29.0914 45.2767 29.0914C45.3508 29.0914 45.4218 29.1215 45.4742 29.1751C45.5265 29.2287 45.5559 29.3014 45.5559 29.3771C45.5559 29.4529 45.5265 29.5256 45.4742 29.5792C45.4218 29.6328 45.3508 29.6629 45.2767 29.6629C43.1844 29.6629 38.2793 34.9848 38.2793 37.2552C38.2793 37.331 38.2499 37.4037 38.1975 37.4573C38.1452 37.5108 38.0741 37.5409 38.0001 37.5409Z" fill="#FFC262"/>
<path d="M38.4897 19.8933C38.4897 20.3867 38.1583 20.7867 38.0001 20.7867C37.8418 20.7867 37.5105 20.3867 37.5105 19.8933C37.5105 19.4 37.7283 19 38.0001 19C38.2719 19 38.4897 19.4 38.4897 19.8933Z" fill="#FFC262"/>
<path d="M47.127 29.8781C46.6468 29.8781 46.2559 29.539 46.2559 29.3771C46.2559 29.2152 46.6468 28.8762 47.127 28.8762C47.6073 28.8762 48.0001 29.099 48.0001 29.3771C48.0001 29.6552 47.6092 29.8781 47.127 29.8781Z" fill="#FFC262"/>
<path d="M28.8712 28.8762C29.3533 28.8762 29.7442 29.2152 29.7442 29.3771C29.7442 29.539 29.3533 29.8781 28.8712 29.8781C28.3891 29.8781 28 29.6533 28 29.3771C28 29.101 28.3909 28.8762 28.8712 28.8762Z" fill="#FFC262"/>
<path d="M37.5105 39.1086C37.5105 38.6152 37.8418 38.2152 38.0001 38.2152C38.1583 38.2152 38.4897 38.6152 38.4897 39.1086C38.4897 39.6019 38.27 40 38.0001 40C37.7302 40 37.5105 39.6 37.5105 39.1086Z" fill="#FFC262"/>
</g>
<defs>
<clipPath id="clip0_142_1119">
<rect width="36" height="37" fill="white"/>
</clipPath>
<clipPath id="clip1_142_1119">
<rect width="20" height="21" fill="white" transform="translate(28 19)"/>
</clipPath>
</defs>
</svg>
