<svg width="34" height="34" viewBox="0 0 34 34" fill="none" xmlns="http://www.w3.org/2000/svg">
<path d="M33.2987 14.5721C33.2987 7.12362 25.83 1.0625 16.6494 1.0625C7.46872 1.0625 0 7.12362 0 14.5721C0 21.2512 5.93004 26.8457 13.9231 27.9022C14.4662 28.0192 15.2043 28.2595 15.39 28.723C15.5586 29.1444 15.5008 29.8045 15.4446 30.2289C15.4446 30.2289 15.2496 31.404 15.2074 31.6537C15.1341 32.0751 14.8719 33.3001 16.6494 32.5526C18.4268 31.8051 26.2373 26.9066 29.7298 22.8851C32.1424 20.2399 33.2987 17.5496 33.2987 14.5721Z" fill="#9D9FA3"/>
<path d="M28.2712 18.8668H23.5896C23.5068 18.8668 23.4274 18.8339 23.3689 18.7754C23.3104 18.7168 23.2775 18.6374 23.2775 18.5547V11.2904V11.2826C23.2775 11.1998 23.3104 11.1204 23.3689 11.0619C23.4274 11.0033 23.5068 10.9705 23.5896 10.9705H28.2712C28.354 10.9705 28.4334 11.0033 28.4919 11.0619C28.5504 11.1204 28.5833 11.1998 28.5833 11.2826V12.4639C28.5833 12.5467 28.5504 12.6261 28.4919 12.6846C28.4334 12.7431 28.354 12.776 28.2712 12.776H25.0924V14.001H28.2712C28.354 14.001 28.4334 14.0339 28.4919 14.0924C28.5504 14.151 28.5833 14.2304 28.5833 14.3131V15.5132C28.5833 15.596 28.5504 15.6753 28.4919 15.7339C28.4334 15.7924 28.354 15.8253 28.2712 15.8253H25.0924V17.0519H28.2712C28.354 17.0519 28.4334 17.0848 28.4919 17.1433C28.5504 17.2018 28.5833 17.2812 28.5833 17.364V18.5437C28.5848 18.5856 28.5778 18.6274 28.5627 18.6665C28.5477 18.7057 28.525 18.7414 28.4958 18.7715C28.4667 18.8017 28.4318 18.8257 28.3932 18.842C28.3546 18.8584 28.3131 18.8668 28.2712 18.8668Z" fill="white"/>
<path d="M10.9671 18.8666C11.0499 18.8666 11.1293 18.8338 11.1878 18.7752C11.2463 18.7167 11.2792 18.6373 11.2792 18.5545V17.3748C11.2792 17.292 11.2463 17.2126 11.1878 17.1541C11.1293 17.0955 11.0499 17.0627 10.9671 17.0627H7.78829V11.2887C7.78829 11.2059 7.75542 11.1265 7.69689 11.068C7.63835 11.0094 7.55896 10.9766 7.47619 10.9766H6.29642C6.21365 10.9766 6.13426 11.0094 6.07573 11.068C6.0172 11.1265 5.98431 11.2059 5.98431 11.2887V18.5499C5.98431 18.6326 6.0172 18.712 6.07573 18.7705C6.13426 18.8291 6.21365 18.862 6.29642 18.862H10.978L10.9671 18.8666Z" fill="white"/>
<path d="M13.7848 10.9642H12.605C12.4292 10.9642 12.2867 11.1068 12.2867 11.2826V18.5484C12.2867 18.7243 12.4292 18.8668 12.605 18.8668H13.7848C13.9606 18.8668 14.1031 18.7243 14.1031 18.5484V11.2826C14.1031 11.1068 13.9606 10.9642 13.7848 10.9642Z" fill="white"/>
<path d="M21.8194 10.9642H20.6396C20.5569 10.9642 20.4775 10.9971 20.4189 11.0557C20.3604 11.1142 20.3275 11.1936 20.3275 11.2763V15.5928L17.0036 11.1031C16.996 11.0912 16.9871 11.0802 16.977 11.0704L16.9583 11.0516L16.9412 11.0376H16.9318L16.9146 11.0251H16.9053L16.8881 11.0157H16.8772H16.86H16.8491H16.8304H16.8179H16.7991H16.7867H16.7695H15.5663C15.4835 11.0157 15.4042 11.0486 15.3456 11.1072C15.2871 11.1657 15.2542 11.2451 15.2542 11.3278V18.5937C15.2542 18.6765 15.2871 18.7559 15.3456 18.8144C15.4042 18.8729 15.4835 18.9058 15.5663 18.9058H16.7476C16.8304 18.9058 16.9098 18.8729 16.9683 18.8144C17.0269 18.7559 17.0598 18.6765 17.0598 18.5937V14.2351L20.3884 18.7295C20.4102 18.7613 20.4377 18.7888 20.4695 18.8106L20.4883 18.8231H20.4976H20.5132H20.5288H20.5398H20.5616C20.5892 18.8299 20.6175 18.8336 20.6459 18.834H21.8194C21.9022 18.834 21.9816 18.8011 22.0401 18.7426C22.0986 18.6841 22.1315 18.6047 22.1315 18.5219V11.2826C22.1323 11.2411 22.1249 11.1998 22.1096 11.1612C22.0942 11.1226 22.0714 11.0875 22.0423 11.0578C22.0133 11.0282 21.9786 11.0047 21.9403 10.9886C21.902 10.9725 21.8609 10.9642 21.8194 10.9642Z" fill="white"/>
</svg>
