<svg width="32" height="32" viewBox="0 0 32 32" fill="none" xmlns="http://www.w3.org/2000/svg">
<g clip-path="url(#clip0_259_510)">
<path d="M32 16C32 7.16352 24.8365 0 16 0C7.16352 0 0 7.16352 0 16C0 23.5034 5.16608 29.7997 12.135 31.529V20.8896H8.8352V16H12.135V13.8931C12.135 8.44736 14.599 5.9232 19.943 5.9232C20.9568 5.9232 22.7059 6.1216 23.4214 6.32064V10.752C23.0438 10.7123 22.3878 10.6925 21.5731 10.6925C18.9491 10.6925 17.936 11.6864 17.936 14.2701V15.9981H23.168L22.272 20.8877H17.9386V31.8829C25.8605 30.9261 32 24.1805 32 16Z" fill="#9D9FA3"/>
<path d="M22.2669 20.8896L23.168 16H17.9386V14.272C17.9386 11.6883 18.9523 10.6944 21.5757 10.6944C22.3904 10.6944 23.0477 10.7143 23.424 10.7539V6.32066C22.7085 6.12162 20.9594 5.92322 19.9456 5.92322C14.599 5.92322 12.1376 8.44738 12.1376 13.8931V16H8.83521V20.8896H12.135V31.529C14.032 31.9983 15.9986 32.1182 17.9386 31.8829V20.8896H22.2669Z" fill="white"/>
</g>
<defs>
<clipPath id="clip0_259_510">
<rect width="32" height="32" fill="white"/>
</clipPath>
</defs>
</svg>
