<svg width="40" height="40" viewBox="0 0 40 40" fill="none" xmlns="http://www.w3.org/2000/svg">
<path d="M10.8333 35H29.1666L34.1666 17.5L25.8333 21.6667L19.9999 10L14.1666 21.6667L5.83325 17.5L10.8333 35Z" fill="#FFC262"/>
<path d="M5.83325 17.5C7.21396 17.5 8.33325 16.3807 8.33325 15C8.33325 13.6193 7.21396 12.5 5.83325 12.5C4.45254 12.5 3.33325 13.6193 3.33325 15C3.33325 16.3807 4.45254 17.5 5.83325 17.5Z" fill="#FFC262"/>
<path d="M20 10C21.3807 10 22.5 8.88071 22.5 7.5C22.5 6.11929 21.3807 5 20 5C18.6193 5 17.5 6.11929 17.5 7.5C17.5 8.88071 18.6193 10 20 10Z" fill="#FFC262"/>
<path d="M34.1667 17.5C35.5475 17.5 36.6667 16.3807 36.6667 15C36.6667 13.6193 35.5475 12.5 34.1667 12.5C32.786 12.5 31.6667 13.6193 31.6667 15C31.6667 16.3807 32.786 17.5 34.1667 17.5Z" fill="#FFC262"/>
</svg>
