<svg width="48" height="48" viewBox="0 0 48 48" fill="none" xmlns="http://www.w3.org/2000/svg">
<circle cx="24" cy="24" r="24" fill="#FF0092"/>
<path fill-rule="evenodd" clip-rule="evenodd" d="M15 22.5C15 18.3579 18.3579 15 22.5 15C26.6421 15 30 18.3579 30 22.5C30 24.26 29.3938 25.8784 28.3788 27.1577C28.3919 27.1669 28.4049 27.1765 28.4176 27.1865L28.4991 27.2589L32.7513 31.5403C33.0885 31.8798 33.082 32.4239 32.7367 32.7555C32.418 33.0615 31.922 33.0796 31.5824 32.8135L31.5009 32.7411L27.2487 28.4597C27.22 28.4308 27.1938 28.4005 27.1701 28.3689C25.8888 29.3899 24.2657 30 22.5 30C18.3579 30 15 26.6421 15 22.5ZM28 22.5C28 19.4624 25.5376 17 22.5 17C19.4624 17 17 19.4624 17 22.5C17 25.5376 19.4624 28 22.5 28C25.5376 28 28 25.5376 28 22.5Z" fill="white"/>
</svg>
