<svg width="192" height="40" viewBox="0 0 192 40" fill="none" xmlns="http://www.w3.org/2000/svg">
<g clip-path="url(#clip0_72_1079)">
<path d="M55.3848 7.10058V10.8639H61.7596V12.8521H55.3848V32.1499C55.3848 36.9625 52.8365 39.8974 48.5367 39.8974C47.4461 39.9414 46.3617 39.7136 45.3809 39.2347V36.5365C46.1698 37.6016 48.3158 38.1775 49.3256 38.1775C51.9134 38.1775 52.1422 35.3609 52.1422 32.1894V12.8521H47.6767V10.9034H52.229V7.10058C52.229 2.91913 54.8483 0.489143 59.3296 0.489143C60.3012 0.479866 61.2672 0.637331 62.1856 0.954648V3.32151C61.8009 2.84676 61.3217 2.45713 60.7784 2.17735C60.2352 1.89757 59.6397 1.73373 59.0298 1.69624C56.1737 1.68046 55.3848 4.48126 55.3848 7.10058Z" fill="#231815"/>
<path d="M76.197 23.361H65.412C65.7907 25.8304 67.6132 28.8284 70.5639 28.8284C71.5919 28.8584 72.6083 28.6049 73.5017 28.0956C74.3952 27.5862 75.1311 26.8407 75.629 25.9408L75.6842 28.8047C74.0672 29.7166 72.2298 30.1643 70.3746 30.0986C65.4909 30.0986 62.272 26.9428 62.272 22.3748C62.272 17.9961 65.4278 14.5957 69.5935 14.5957C73.3253 14.5957 76.3548 17.2229 76.3548 21.783C76.3554 22.313 76.3025 22.8416 76.197 23.361ZM65.2542 21.6568H73.3016C73.5541 18.288 72.2444 15.8817 69.4909 15.8817C67.2187 15.8817 65.0886 18.0276 65.2542 21.6568Z" fill="#231815"/>
<path d="M122.974 23.361H112.189C112.56 25.8304 114.383 28.8284 117.333 28.8284C118.362 28.859 119.38 28.6058 120.275 28.0965C121.17 27.5871 121.907 26.8414 122.406 25.9408L122.462 28.8047C120.845 29.7166 119.007 30.1643 117.152 30.0986C112.268 30.0986 109.049 26.9428 109.049 22.3748C109.049 17.9961 112.205 14.5957 116.371 14.5957C120.095 14.5957 123.132 17.2229 123.132 21.783C123.133 22.313 123.08 22.8417 122.974 23.361ZM112.039 21.6568H120.079C120.331 18.288 119.022 15.8817 116.268 15.8817C113.98 15.8817 111.874 18.0276 112.039 21.6568Z" fill="#231815"/>
<path d="M159.724 23.361H148.939C149.317 25.8304 151.14 28.8284 154.091 28.8284C155.12 28.859 156.138 28.6058 157.032 28.0965C157.927 27.5871 158.665 26.8413 159.164 25.9408L159.219 28.8047C157.599 29.7169 155.759 30.1646 153.901 30.0986C149.026 30.0986 145.807 26.9428 145.807 22.3748C145.807 17.9961 148.962 14.5957 153.128 14.5957C156.852 14.5957 159.889 17.2229 159.889 21.783C159.888 22.3133 159.833 22.842 159.724 23.361ZM148.789 21.6568H156.828C157.081 18.288 155.771 15.8817 153.018 15.8817C150.73 15.8817 148.623 18.0276 148.789 21.6568Z" fill="#231815"/>
<path d="M104.844 20.7416V29.6963H101.625V21.1913C101.625 18.7219 100.758 15.9606 98.3276 15.9606C95.8976 15.9606 94.3829 19.1164 94.3829 21.7515V29.641H91.1639V21.1913C91.1639 18.7535 90.2487 15.9606 87.8424 15.9606C85.2783 15.9606 83.8977 19.1164 83.8977 21.7515V29.641H80.6787V14.998H83.7872V17.1913C84.2474 16.3743 84.9238 15.6998 85.7422 15.242C86.5605 14.7841 87.4892 14.5605 88.4263 14.5957C89.4976 14.5284 90.5656 14.7709 91.5029 15.2941C92.4402 15.8173 93.2072 16.5992 93.7123 17.5464C94.226 16.6312 94.9791 15.8731 95.8908 15.3533C96.8026 14.8335 97.8386 14.5716 98.8878 14.5957C102.509 14.5957 104.844 16.9546 104.844 20.7416Z" fill="#231815"/>
<path d="M141.483 8.74163V29.6647H138.698V27.6844C138.106 28.4554 137.34 29.0758 136.462 29.4953C135.585 29.9147 134.621 30.1214 133.649 30.0986C129.523 30.0986 126.438 26.6903 126.438 22.3432C126.438 17.9961 129.546 14.5957 133.681 14.5957C134.579 14.5804 135.47 14.7649 136.289 15.1361C137.108 15.5072 137.834 16.0556 138.414 16.7416V8.74163H141.483ZM138.832 22.3195C138.832 19.6134 137.704 16.0947 134.099 16.0947C130.493 16.0947 129.539 19.6134 129.539 22.4063C129.539 25.1992 131.117 28.7179 134.099 28.7179C137.436 28.6311 138.832 25.1045 138.832 22.3195Z" fill="#231815"/>
<path d="M174.02 14.8087V17.5858C173.38 17.3289 172.697 17.2002 172.008 17.2071C169.459 17.2071 167.479 19.2189 167.479 22.146V29.7041H164.26V14.998H167.321V18.1539C168.11 16.6548 170.028 14.5799 172.465 14.5799C172.991 14.59 173.513 14.6669 174.02 14.8087Z" fill="#231815"/>
<path d="M177.002 22.7771V14.998H180.221V22.9901C180.221 25.5385 180.734 28.8284 184.055 28.8284C187.211 28.8284 187.889 25.5621 187.889 22.9901V14.998H191.085V22.8008C191.085 27.3057 188.592 30.0986 184.032 30.0986C179.471 30.0986 177.002 27.282 177.002 22.7771Z" fill="#231815"/>
<path d="M30.3526 5.84465C30.7084 6.02635 31.0507 6.23334 31.3769 6.46399C31.0544 6.22766 30.7117 6.02038 30.3526 5.84465ZM18.9507 16.5319C19.0448 16.7728 19.1618 17.0041 19.3001 17.2227C19.1711 16.999 19.0544 16.7684 18.9507 16.5319ZM22.7461 26.3378L21.5392 27.3541C21.4935 27.8424 21.395 28.3242 21.2454 28.7912C21.2279 28.8637 21.2067 28.9353 21.1819 29.0056C21.1494 29.1296 21.1097 29.2515 21.0628 29.3708C21.0229 29.5017 20.9725 29.6292 20.912 29.752C20.8299 29.9642 20.7344 30.1711 20.6261 30.3713C20.597 30.4441 20.5597 30.5134 20.515 30.5777C20.4667 30.673 20.4137 30.7657 20.3561 30.8556C20.2421 31.0553 20.1175 31.2488 19.983 31.4352C19.8718 31.5861 19.7607 31.729 19.6416 31.872C19.6067 31.9234 19.5668 31.9713 19.5225 32.0149C19.3853 32.1811 19.2395 32.3402 19.0858 32.4913C18.2741 33.3091 17.3001 33.9477 16.2266 34.3662C15.1531 34.7847 14.0038 34.9736 12.8528 34.9209L12.0588 34.8495C11.7914 34.8078 11.5264 34.7521 11.2648 34.6827C11.0425 34.6351 10.8202 34.5636 10.5979 34.4921C10.3102 34.3969 10.029 34.2828 9.75628 34.1507C9.55491 34.0613 9.35876 33.9605 9.16872 33.849L8.82726 33.6426C8.48769 33.4249 8.16401 33.1835 7.85861 32.92L7.54894 32.6421L6.75494 33.4996L5.96094 34.3572C9.75945 38.022 14.8456 40.0482 20.1236 39.9991C25.4017 39.95 30.4492 37.8297 34.1789 34.0948C37.9086 30.3598 40.022 25.3093 40.0637 20.0312C40.1054 14.7531 38.0722 9.66981 34.402 5.87641L34.2035 5.67791L34.0209 5.49531L33.9573 5.43972C33.8494 5.33025 33.7354 5.22686 33.6159 5.13005C32.3565 4.02809 30.8524 3.24225 29.2285 2.83766C27.6047 2.43308 25.9078 2.42141 24.2785 2.80364C24.1735 2.82262 24.07 2.84916 23.9688 2.88305L23.6433 2.97039C23.436 3.02846 23.232 3.09736 23.0319 3.17682C22.8255 3.25622 22.6191 3.33562 22.4126 3.43884L22.2062 3.52618C22.0189 3.60924 21.836 3.70199 21.6583 3.80408C21.4697 3.89921 21.2867 4.00527 21.1105 4.12168C20.6019 4.43092 20.1234 4.78712 19.6813 5.18564C19.4986 5.3365 19.3239 5.50323 19.1492 5.67791L18.7761 6.06699C18.5935 6.27343 18.4188 6.47986 18.2441 6.70218C17.5496 7.60501 16.9979 8.60924 16.6085 9.67968C16.1686 10.8933 15.9508 12.1762 15.9654 13.467C15.9708 14.1019 16.0373 14.7347 16.1639 15.3568C16.1639 15.5553 16.2512 15.7458 16.2988 15.9443C16.3465 16.1428 16.3703 16.1905 16.402 16.3175C16.4338 16.4445 16.4021 16.4446 16.4656 16.5081C16.5291 16.5716 16.5688 16.8257 16.6323 16.9845C16.6958 17.1433 16.7593 17.3021 16.8228 17.4529C16.8864 17.6038 16.9737 17.7943 17.0611 17.9611C17.1484 18.1278 17.1325 18.104 17.1722 18.1675C17.5747 18.0361 17.9954 17.9691 18.4188 17.969H18.4982C19.1196 17.9675 19.7285 18.1438 20.2529 18.4772C20.1562 18.3689 20.0661 18.2549 19.983 18.1358L19.7686 17.8579C19.6888 17.7523 19.6171 17.6408 19.5542 17.5244C19.4827 17.4132 19.4192 17.3021 19.3557 17.1909C19.2267 16.9672 19.11 16.7366 19.0063 16.5001C18.9479 16.3819 18.8975 16.2599 18.8555 16.1349C18.7774 15.9352 18.7111 15.731 18.657 15.5235C18.5919 15.3069 18.5389 15.0869 18.4982 14.8645C18.4516 14.6389 18.4171 14.4109 18.395 14.1816C18.3631 13.9341 18.3471 13.6849 18.3474 13.4353C18.3452 12.8542 18.401 12.2744 18.5141 11.7044C18.5458 11.5297 18.5855 11.355 18.6332 11.1803C18.6967 10.9501 18.7682 10.7198 18.8476 10.4975C19.2713 9.32149 19.949 8.25336 20.8326 7.36914C22.0573 6.12744 23.6455 5.308 25.3672 5.02962C27.0889 4.75123 28.8546 5.02836 30.4082 5.82083C30.764 6.00253 31.1063 6.2095 31.4324 6.44015C31.768 6.68244 32.0864 6.94774 32.3852 7.23415L32.6949 7.54382C35.4038 10.3192 37.128 13.9063 37.6032 17.7554C38.0785 21.6045 37.2785 25.5032 35.326 28.8541C33.3734 32.2051 30.376 34.8234 26.793 36.3078C23.2101 37.7922 19.2392 38.0609 15.4889 37.0726H15.5842H15.6795C16.1615 36.9685 16.6342 36.8251 17.0928 36.6439C17.2516 36.5883 17.4104 36.5168 17.5692 36.4454H17.6566L18.2441 36.1516L18.3156 36.1119C18.522 36.0007 18.7205 35.8816 18.919 35.7625C18.9987 35.7169 19.0756 35.6665 19.1492 35.6117C19.316 35.5085 19.4669 35.3973 19.6257 35.2782C19.7845 35.1591 19.983 35.0003 20.1576 34.8574L20.3006 34.7303C20.4832 34.5795 20.6579 34.4127 20.8326 34.2381C21.0853 33.9868 21.3238 33.7218 21.5471 33.4441C21.8843 33.034 22.1896 32.5987 22.4603 32.1419L22.7302 31.6735C22.8096 31.5305 22.8811 31.3797 22.9525 31.2288C23.0955 30.9271 23.2225 30.6254 23.3336 30.3157C23.3892 30.1569 23.4448 30.006 23.4924 29.8472C23.8381 28.7481 24.007 27.601 23.9927 26.4489C23.9889 26.1117 23.965 25.775 23.9212 25.4406L22.8255 26.3775M18.9746 16.6272C19.0686 16.8681 19.1856 17.0994 19.324 17.3179C19.1835 17.0639 19.0588 16.8014 18.9507 16.5319L18.9746 16.6272ZM30.3764 5.93995C30.7322 6.12165 31.0745 6.32862 31.4007 6.55927C31.0745 6.28873 30.7236 6.04945 30.3526 5.84465L30.3764 5.93995ZM18.9746 16.6272C19.0686 16.8681 19.1856 17.0994 19.324 17.3179C19.1835 17.0639 19.0588 16.8014 18.9507 16.5319L18.9746 16.6272ZM30.3764 5.93995C30.7322 6.12165 31.0745 6.32862 31.4007 6.55927C31.0745 6.28873 30.7236 6.04945 30.3526 5.84465L30.3764 5.93995Z" fill="#FF0092"/>
<path d="M21.7851 20.2081C21.7454 20.1446 21.6898 20.089 21.6422 20.0255C21.5787 20.0663 21.5201 20.1142 21.4675 20.1684C21.4346 20.1934 21.4051 20.2228 21.3801 20.2557C21.3325 20.3034 21.2928 20.3589 21.2452 20.4145C21.1161 20.5749 20.9993 20.7447 20.8958 20.9227V20.9783L20.7212 21.3117C20.7212 21.3753 20.6497 21.4388 20.6179 21.5023C20.1177 20.4701 19.681 19.5729 18.4821 19.5491H18.228H18.093C18.228 19.7237 18.363 19.8905 18.5138 20.0572L18.7441 20.3034C18.8791 20.4542 19.0299 20.6051 19.1808 20.748C19.2641 20.8207 19.3435 20.8975 19.419 20.9783C19.4991 21.0519 19.5734 21.1315 19.6413 21.2165C19.7604 21.3435 19.8716 21.4785 19.9748 21.6135C20.0616 21.7088 20.1387 21.8125 20.205 21.9231C20.3655 22.1292 20.5065 22.3498 20.6259 22.5821C20.7053 22.7251 20.7847 22.868 20.8482 23.0109C20.9144 23.1368 20.9728 23.2668 21.0229 23.4C21.2837 23.984 21.4627 24.6012 21.5549 25.2341L22.5711 24.3766L23.5478 23.5429C23.1835 22.3269 22.5846 21.194 21.7851 20.2081ZM21.7851 20.2081C21.7454 20.1446 21.6898 20.089 21.6422 20.0255C21.5787 20.0663 21.5201 20.1142 21.4675 20.1684C21.4346 20.1934 21.4051 20.2228 21.3801 20.2557C21.3325 20.3034 21.2928 20.3589 21.2452 20.4145C21.1161 20.5749 20.9993 20.7447 20.8958 20.9227V20.9783L20.7212 21.3117C20.7212 21.3753 20.6497 21.4388 20.6179 21.5023C20.1177 20.4701 19.681 19.5729 18.4821 19.5491H18.228H18.093C18.228 19.7237 18.363 19.8905 18.5138 20.0572L18.7441 20.3034C18.8791 20.4542 19.0299 20.6051 19.1808 20.748C19.2641 20.8207 19.3435 20.8975 19.419 20.9783C19.4991 21.0519 19.5734 21.1315 19.6413 21.2165C19.7604 21.3435 19.8716 21.4785 19.9748 21.6135C20.0616 21.7088 20.1387 21.8125 20.205 21.9231C20.3655 22.1292 20.5065 22.3498 20.6259 22.5821C20.7053 22.7251 20.7847 22.868 20.8482 23.0109C20.9144 23.1368 20.9728 23.2668 21.0229 23.4C21.2837 23.984 21.4627 24.6012 21.5549 25.2341L22.5711 24.3766L23.5478 23.5429C23.1779 22.3292 22.5796 21.1973 21.7851 20.2081ZM20.8641 20.9545V21.01L20.6894 21.3435C20.6894 21.407 20.6179 21.4705 20.5861 21.5341C20.0859 20.5019 19.6493 19.6047 18.4503 19.5808H18.228H18.093C18.228 19.7555 18.363 19.9222 18.5138 20.089L18.7441 20.3351C18.8791 20.486 19.0299 20.6369 19.1808 20.7798C19.2641 20.8524 19.3435 20.9293 19.419 21.01C19.4991 21.0836 19.5734 21.1633 19.6413 21.2482C19.7604 21.3753 19.8716 21.5103 19.9748 21.6452C20.0616 21.7406 20.1387 21.8443 20.205 21.9549C20.3655 22.161 20.5065 22.3816 20.6259 22.6139C20.7053 22.7568 20.7847 22.8997 20.8482 23.0427C20.9144 23.1686 20.9728 23.2985 21.0229 23.4317C21.2837 24.0157 21.4627 24.6329 21.5549 25.2659L22.5711 24.4083C22.2663 23.1443 21.6831 21.9643 20.8641 20.9545ZM33.9174 5.47148C33.8094 5.36201 33.6955 5.25861 33.576 5.16181C29.7113 1.68515 24.6509 -0.16073 19.4553 0.0109917C14.2597 0.182713 9.33225 2.3587 5.7055 6.08297C2.07876 9.80724 0.0342602 14.7907 0.000426678 19.989C-0.0334068 25.1873 1.94605 30.1969 5.52401 33.9681L5.72251 34.1745L5.91306 34.3571C7.64525 36.0073 9.88301 37.0255 12.2651 37.2473C12.5747 37.2473 12.8765 37.287 13.1861 37.287C13.9582 37.2897 14.728 37.2045 15.4807 37.0329H15.576C16.058 36.9288 16.5307 36.7854 16.9894 36.6042C17.1482 36.5486 17.3069 36.4771 17.4657 36.4057H17.5531L18.1407 36.1119L18.2121 36.0722C18.4185 35.961 18.617 35.8419 18.8155 35.7228C18.8952 35.6772 18.9722 35.6268 19.0458 35.572C19.2126 35.4687 19.3634 35.3576 19.5222 35.2385C19.681 35.1194 19.8795 34.9606 20.0542 34.8177L20.1971 34.6906C20.3797 34.5398 20.5544 34.373 20.7291 34.1984C20.9818 33.9471 21.2204 33.682 21.4437 33.4044C21.7809 32.9943 22.0862 32.5589 22.3568 32.1022L22.6267 31.6337C22.7061 31.4908 22.7776 31.34 22.8491 31.1891C22.992 30.8874 23.119 30.5857 23.2302 30.276C23.2858 30.1172 23.3413 29.9663 23.389 29.8075C23.7573 28.6913 23.9344 27.5209 23.913 26.3457C23.913 26.0202 23.913 25.6946 23.8495 25.377L22.7538 26.3139L21.5469 27.3303C21.5012 27.8185 21.4027 28.3004 21.2531 28.7674C21.2356 28.8399 21.2144 28.9114 21.1896 28.9818C21.1571 29.1058 21.1174 29.2277 21.0705 29.347C21.0306 29.4779 20.9802 29.6054 20.9197 29.7281C20.8376 29.9404 20.7421 30.1473 20.6338 30.3475C20.6047 30.4203 20.5674 30.4895 20.5227 30.5539C20.4775 30.6508 20.4244 30.7437 20.3639 30.8318C20.2498 31.0314 20.1252 31.2249 19.9907 31.4114C19.8795 31.5623 19.7683 31.7052 19.6492 31.8481C19.6143 31.8995 19.5745 31.9474 19.5302 31.991C19.393 32.1573 19.2472 32.3163 19.0935 32.4674C18.2818 33.2852 17.3078 33.9239 16.2343 34.3424C15.1608 34.7608 14.0115 34.9498 12.8606 34.8971L12.0666 34.8256C11.7992 34.7839 11.5341 34.7283 11.2726 34.6589C11.0502 34.6112 10.8279 34.5398 10.6056 34.4683C10.3179 34.373 10.0368 34.259 9.76399 34.1269L9.17639 33.8252L8.83497 33.6187C8.4954 33.4011 8.17172 33.1596 7.86632 32.8962L7.55665 32.6183L7.24698 32.3086C4.54753 29.5297 2.83166 25.9438 2.36129 22.0983C1.89093 18.2527 2.69193 14.3589 4.64201 11.0113C6.59208 7.66368 9.58407 5.0462 13.1612 3.55846C16.7384 2.07072 20.7041 1.79447 24.453 2.77188L24.2624 2.81951C24.1574 2.83849 24.0539 2.86502 23.9527 2.89891L23.6272 2.98625C23.4199 3.04432 23.2159 3.11323 23.0158 3.19269C22.8094 3.27209 22.6029 3.3515 22.3965 3.45471L22.19 3.54206C22.0027 3.62511 21.8199 3.71786 21.6422 3.81995C21.4535 3.91508 21.2706 4.02114 21.0943 4.13755C20.5857 4.44679 20.1073 4.80298 19.6651 5.2015C19.4825 5.35236 19.3078 5.51912 19.1332 5.6938L18.76 6.08285C18.5773 6.28929 18.4027 6.49572 18.228 6.71804C17.5334 7.62087 16.9818 8.62509 16.5924 9.69553C15.9377 11.5138 15.7841 13.4746 16.1477 15.3726C16.1477 15.5711 16.235 15.7617 16.2827 15.9602C16.3303 16.1587 16.3542 16.2063 16.3859 16.3334C16.4177 16.4604 16.3859 16.4604 16.4494 16.5239C16.513 16.5875 16.5526 16.8415 16.6162 17.0003C16.6797 17.1591 16.7432 17.3179 16.8068 17.4688C16.8703 17.6196 16.9576 17.8102 17.0449 17.977C17.1323 18.1437 17.1085 18.1119 17.1482 18.1834C17.5506 18.0519 17.9714 17.985 18.3948 17.9849H18.4741C19.0956 17.9833 19.7045 18.1597 20.2289 18.4931C20.1322 18.3847 20.042 18.2707 19.9589 18.1516C19.8783 18.0665 19.8064 17.9734 19.7445 17.8737C19.6647 17.7682 19.5931 17.6567 19.5302 17.5402C19.4524 17.4364 19.3859 17.3246 19.3317 17.2068C19.1933 16.9883 19.0763 16.7569 18.9823 16.516C18.9239 16.3977 18.8735 16.2757 18.8314 16.1507C18.7534 15.951 18.6871 15.7469 18.6329 15.5394C18.5679 15.3228 18.5149 15.1028 18.4741 14.8803C18.4275 14.6547 18.3931 14.4268 18.3709 14.1975C18.3709 13.9673 18.3709 13.737 18.3709 13.4988C18.351 13.1683 18.351 12.8368 18.3709 12.5063C18.3935 12.2393 18.4333 11.9741 18.49 11.7123C18.5218 11.5376 18.5615 11.3629 18.6091 11.1883C18.6726 10.958 18.7441 10.7277 18.8235 10.5054C19.2472 9.32943 19.9249 8.26129 20.8085 7.37707C22.0332 6.13537 23.6215 5.31593 25.3432 5.03755C27.0649 4.75917 28.8305 5.0363 30.3841 5.82876C30.7432 6.0045 31.0859 6.21175 31.4084 6.44808C31.746 6.6877 32.0646 6.95317 32.3612 7.24208L33.1552 6.38457L33.9492 5.52704L33.9174 5.47148ZM20.1415 21.9946C20.302 22.2007 20.4429 22.4213 20.5624 22.6536C20.6418 22.7965 20.7211 22.9394 20.7846 23.0824C20.8509 23.2083 20.9093 23.3382 20.9594 23.4714C21.2202 24.0554 21.3992 24.6726 21.4913 25.3056L22.5077 24.448C22.2168 23.1818 21.6472 21.9965 20.8402 20.9783V21.0338L20.6656 21.3673C20.6656 21.4308 20.5941 21.4944 20.5624 21.5579C20.0621 20.5257 19.6254 19.6285 18.4265 19.6046H18.228H18.093C18.228 19.7793 18.363 19.9461 18.5138 20.1128L18.7441 20.359C18.8791 20.5098 19.0299 20.6607 19.1808 20.8036C19.2641 20.8763 19.3435 20.9531 19.419 21.0338C19.4991 21.1074 19.5734 21.1871 19.6413 21.2721C19.7604 21.3991 19.8716 21.5341 19.9748 21.6691C20.0404 21.7721 20.0962 21.8811 20.1415 21.9946ZM21.7851 20.2081C21.7454 20.1446 21.6898 20.089 21.6422 20.0255C21.5787 20.0663 21.5201 20.1142 21.4675 20.1684C21.4346 20.1934 21.4051 20.2228 21.3801 20.2557C21.3325 20.3034 21.2928 20.3589 21.2452 20.4145C21.1161 20.5749 20.9993 20.7447 20.8958 20.9227V20.9783L20.7212 21.3117C20.7212 21.3753 20.6497 21.4388 20.6179 21.5023C20.1177 20.4701 19.681 19.5729 18.4821 19.5491H18.228H18.093C18.228 19.7237 18.363 19.8905 18.5138 20.0572L18.7441 20.3034C18.8791 20.4542 19.0299 20.6051 19.1808 20.748C19.2641 20.8207 19.3435 20.8975 19.419 20.9783C19.4991 21.0519 19.5734 21.1315 19.6413 21.2165C19.7604 21.3435 19.8716 21.4785 19.9748 21.6135C20.0616 21.7088 20.1387 21.8125 20.205 21.9231C20.3655 22.1292 20.5065 22.3498 20.6259 22.5821C20.7053 22.7251 20.7847 22.868 20.8482 23.0109C20.9144 23.1368 20.9728 23.2668 21.0229 23.4C21.2837 23.984 21.4627 24.6012 21.5549 25.2341L22.5711 24.3766L23.5478 23.5429C23.1779 22.3292 22.5796 21.1973 21.7851 20.2081ZM21.7851 20.2081C21.7454 20.1446 21.6898 20.089 21.6422 20.0255C21.5787 20.0663 21.5201 20.1142 21.4675 20.1684C21.4346 20.1934 21.4051 20.2228 21.3801 20.2557C21.3325 20.3034 21.2928 20.3589 21.2452 20.4145C21.1161 20.5749 20.9993 20.7447 20.8958 20.9227V20.9783L20.7212 21.3117C20.7212 21.3753 20.6497 21.4388 20.6179 21.5023C20.1177 20.4701 19.681 19.5729 18.4821 19.5491H18.228H18.093C18.228 19.7237 18.363 19.8905 18.5138 20.0572L18.7441 20.3034C18.8791 20.4542 19.0299 20.6051 19.1808 20.748C19.2641 20.8207 19.3435 20.8975 19.419 20.9783C19.4991 21.0519 19.5734 21.1315 19.6413 21.2165C19.7604 21.3435 19.8716 21.4785 19.9748 21.6135C20.0616 21.7088 20.1387 21.8125 20.205 21.9231C20.3655 22.1292 20.5065 22.3498 20.6259 22.5821C20.7053 22.7251 20.7847 22.868 20.8482 23.0109C20.9144 23.1368 20.9728 23.2668 21.0229 23.4C21.2837 23.984 21.4627 24.6012 21.5549 25.2341L22.5711 24.3766L23.5478 23.5429C23.1835 22.3269 22.5846 21.194 21.7851 20.2081Z" fill="#FF0092"/>
<path d="M28.3915 17.5164H28.0977C27.3876 17.4942 26.7017 17.2536 26.1333 16.8273C25.5649 16.4011 25.1418 15.8099 24.9217 15.1344C24.8816 14.9832 24.8716 14.8256 24.8924 14.6706C24.9132 14.5155 24.9642 14.3661 25.0428 14.2308C25.1213 14.0955 25.2257 13.977 25.35 13.882C25.4743 13.7871 25.6161 13.7176 25.7673 13.6774C25.9185 13.6373 26.0762 13.6273 26.2312 13.6481C26.3862 13.6689 26.5356 13.72 26.6709 13.7985C26.8062 13.877 26.9247 13.9814 27.0197 14.1057C27.1146 14.23 27.1842 14.3719 27.2243 14.5231C27.3262 14.7182 27.4805 14.881 27.6699 14.9932C27.8592 15.1054 28.0761 15.1626 28.2962 15.1582C28.8599 15.1582 29.2093 15.055 29.5587 14.2055C29.6091 14.0495 29.6911 13.9056 29.7997 13.7828C29.9082 13.66 30.041 13.561 30.1896 13.4918C30.3382 13.4227 30.4995 13.385 30.6633 13.381C30.8272 13.3771 30.9901 13.407 31.1418 13.4689C31.2936 13.5308 31.4309 13.6234 31.5453 13.7408C31.6596 13.8583 31.7485 13.998 31.8063 14.1514C31.8641 14.3047 31.8897 14.4684 31.8814 14.632C31.8731 14.7957 31.8311 14.9559 31.758 15.1027C31.5333 15.8149 31.0838 16.4351 30.4768 16.8703C29.8698 17.3054 29.1382 17.5322 28.3915 17.5164Z" fill="#FF0092"/>
<path d="M10.4469 17.5164C9.7026 17.5237 8.97588 17.2903 8.37496 16.8511C7.77405 16.4118 7.33108 15.7902 7.1121 15.0788C6.99312 14.7861 6.99531 14.4581 7.11815 14.167C7.241 13.8759 7.47445 13.6455 7.76715 13.5266C8.05986 13.4076 8.38786 13.4097 8.67896 13.5326C8.97007 13.6554 9.20046 13.8889 9.31944 14.1816C9.6688 15.0312 10.0181 15.1662 10.5819 15.1344C10.8014 15.136 11.0173 15.0777 11.2062 14.9658C11.395 14.8539 11.5498 14.6926 11.6537 14.4992C11.734 14.194 11.9321 13.9331 12.2045 13.7738C12.477 13.6145 12.8014 13.5698 13.1068 13.6496C13.4115 13.7334 13.6711 13.9334 13.83 14.2066C13.9888 14.4797 14.0342 14.8043 13.9564 15.1106C13.7342 15.7848 13.3106 16.3747 12.7427 16.8007C12.1748 17.2266 11.4899 17.4681 10.7804 17.4926L10.4469 17.5164Z" fill="#FF0092"/>
<path d="M24.9056 21.6373C24.8989 21.931 24.8169 22.2181 24.6674 22.471C24.4906 22.7338 24.2705 22.9648 24.0163 23.1538L23.5399 23.5588L22.5633 24.3925L21.547 25.25L20.5465 26.0996L19.6891 25.3056L18.0057 23.7176C17.577 23.3285 17.1165 22.9236 16.7195 22.5345C16.4241 22.2097 16.2674 21.7823 16.2828 21.3435C16.3222 20.8695 16.5279 20.4246 16.8635 20.0876C17.1991 19.7505 17.643 19.5429 18.1169 19.5014H18.2519H18.4663C19.6652 19.5014 20.1019 20.4225 20.6021 21.4547C20.6021 21.3911 20.6656 21.3276 20.7053 21.2641L20.88 20.9306V20.8751C20.9835 20.6971 21.1003 20.5272 21.2294 20.3669C21.2771 20.3113 21.3167 20.2557 21.3644 20.2081C21.3894 20.1751 21.4187 20.1457 21.4517 20.1208C21.5043 20.0666 21.5629 20.0186 21.6264 19.9778C21.9463 19.7322 22.3431 19.6084 22.7459 19.6285C23.0201 19.6168 23.2938 19.6597 23.5512 19.7546C23.8087 19.8495 24.0447 19.9946 24.2456 20.1815C24.4465 20.3684 24.6083 20.5933 24.7216 20.8432C24.8349 21.0931 24.8974 21.363 24.9056 21.6373Z" fill="#FF0092"/>
</g>
<defs>
<clipPath id="clip0_72_1079">
<rect width="191.116" height="40" fill="white"/>
</clipPath>
</defs>
</svg>
